# 3ds Max Wavefront OBJ Exporter v0.97b - (c)2007 guruware
# File Created: 12.04.2017 12:48:00

mtllib untitled.mtl

#
# object default
#

v  -0.4075 -0.4075 0.4075
v  -0.3505 -0.3505 0.4075
v  -0.3505 0.3505 0.4075
v  -0.4075 0.4075 0.4075
v  0.4075 0.4075 0.4075
v  0.3505 0.3505 0.4075
v  0.3505 -0.3505 0.4075
v  0.4075 -0.4075 0.4075
v  0.4075 0.4075 -0.4075
v  0.4075 0.3505 -0.3505
v  0.4075 -0.3505 -0.3505
v  0.4075 -0.4075 -0.4075
v  0.4075 -0.3505 0.3505
v  0.4075 0.3505 0.3505
v  -0.4075 0.4075 -0.4075
v  -0.3505 0.3505 -0.4075
v  -0.3505 -0.3505 -0.4075
v  -0.4075 -0.4075 -0.4075
v  0.3505 -0.3505 -0.4075
v  0.3505 0.3505 -0.4075
v  -0.4075 -0.3505 -0.3505
v  -0.4075 0.3505 -0.3505
v  -0.4075 0.3505 0.3505
v  -0.4075 -0.3505 0.3505
v  -0.3505 0.4075 -0.3505
v  0.3505 0.4075 -0.3505
v  -0.3505 0.4075 0.3505
v  0.3505 0.4075 0.3505
v  -0.3505 -0.4075 -0.3505
v  -0.3505 -0.4075 0.3505
v  0.3505 -0.4075 -0.3505
v  0.3505 -0.4075 0.3505
v  -0.3717 -0.3505 -0.3505
v  -0.3717 0.3505 -0.3505
v  -0.3717 0.3505 0.3505
v  -0.3717 -0.3505 0.3505
v  -0.3505 -0.3505 0.3717
v  -0.3505 0.3505 0.3717
v  0.3505 0.3505 0.3717
v  0.3505 -0.3505 0.3717
v  0.3717 0.3505 -0.3505
v  0.3717 -0.3505 -0.3505
v  0.3717 -0.3505 0.3505
v  0.3717 0.3505 0.3505
v  -0.3505 0.3717 -0.3505
v  0.3505 0.3717 -0.3505
v  -0.3505 0.3717 0.3505
v  0.3505 0.3717 0.3505
v  -0.3505 0.3505 -0.3717
v  -0.3505 -0.3505 -0.3717
v  0.3505 -0.3505 -0.3717
v  0.3505 0.3505 -0.3717
v  -0.3505 -0.3717 -0.3505
v  -0.3505 -0.3717 0.3505
v  0.3505 -0.3717 -0.3505
v  0.3505 -0.3717 0.3505
# 56 vertices

vn 0.0000 0.0000 1.0000
vn 1.0000 0.0000 -0.0000
vn 1.0000 0.0000 0.0000
vn 0.0000 0.0000 -1.0000
vn -1.0000 0.0000 -0.0000
vn 0.0000 1.0000 -0.0000
vn 0.0000 -1.0000 -0.0000
# 7 vertex normals

vt 0.8239 0.0185 0.0000
vt 0.7701 0.0851 0.0000
vt 0.7701 0.9035 0.0000
vt 0.8239 0.9701 0.0000
vt 0.0552 0.9701 0.0000
vt 0.1090 0.9035 0.0000
vt 0.1090 0.0851 0.0000
vt 0.0552 0.0185 0.0000
vt 0.6839 0.0323 0.0000
vt 0.6301 0.0989 0.0000
vt 0.6301 0.9174 0.0000
vt 0.6839 0.9840 0.0000
vt 0.3238 0.9667 0.0000
vt 0.3777 0.9001 0.0000
vt 0.3777 0.0816 0.0000
vt 0.3238 0.0150 0.0000
vt 0.9488 0.9649 0.0000
vt 0.8969 0.9006 0.0000
vt 0.8969 0.1103 0.0000
vt 0.9488 0.0460 0.0000
vt 0.2066 0.0460 0.0000
vt 0.2586 0.1103 0.0000
vt 0.2586 0.9006 0.0000
vt 0.2066 0.9649 0.0000
vt 0.6746 0.9615 0.0000
vt 0.6226 0.8971 0.0000
vt 0.6226 0.1068 0.0000
vt 0.6746 0.0425 0.0000
vt 0.3381 0.0356 0.0000
vt 0.3901 0.0999 0.0000
vt 0.3901 0.8902 0.0000
vt 0.3381 0.9545 0.0000
vt 0.0707 0.9609 0.0000
vt 0.1233 0.8959 0.0000
vt 0.1233 0.0965 0.0000
vt 0.0707 0.0314 0.0000
vt 0.8215 0.0314 0.0000
vt 0.7689 0.0965 0.0000
vt 0.7689 0.8959 0.0000
vt 0.8215 0.9609 0.0000
vt 0.9502 0.0210 0.0000
vt 0.8977 0.0861 0.0000
vt 0.8977 0.8855 0.0000
vt 0.9502 0.9505 0.0000
vt 0.1994 0.9505 0.0000
vt 0.2520 0.8855 0.0000
vt 0.2520 0.0861 0.0000
vt 0.1994 0.0210 0.0000
vt 0.8256 0.0221 0.0000
vt 0.7717 0.0888 0.0000
vt 0.7717 0.9084 0.0000
vt 0.8256 0.9751 0.0000
vt 0.0558 0.9751 0.0000
vt 0.1097 0.9084 0.0000
vt 0.1097 0.0888 0.0000
vt 0.0558 0.0221 0.0000
vt 0.8200 0.0255 0.0000
vt 0.7661 0.0923 0.0000
vt 0.7661 0.9118 0.0000
vt 0.8200 0.9785 0.0000
vt 0.3525 0.9785 0.0000
vt 0.4064 0.9118 0.0000
vt 0.4064 0.0923 0.0000
vt 0.3525 0.0255 0.0000
vt 0.5406 0.9830 0.0000
vt 0.4866 0.9162 0.0000
vt 0.4866 0.0951 0.0000
vt 0.5406 0.0283 0.0000
vt 0.1892 0.0144 0.0000
vt 0.2432 0.0812 0.0000
vt 0.2432 0.9023 0.0000
vt 0.1892 0.9691 0.0000
vt 0.3543 0.0144 0.0000
vt 0.4083 0.0812 0.0000
vt 0.4083 0.9023 0.0000
vt 0.3543 0.9691 0.0000
vt 0.9604 0.9691 0.0000
vt 0.9064 0.9023 0.0000
vt 0.9064 0.0812 0.0000
vt 0.9604 0.0144 0.0000
vt 0.0664 0.9683 0.0000
vt 0.1192 0.9030 0.0000
vt 0.1192 0.1007 0.0000
vt 0.0664 0.0354 0.0000
vt 0.9654 0.0285 0.0000
vt 0.9126 0.0938 0.0000
vt 0.9126 0.8960 0.0000
vt 0.9654 0.9613 0.0000
vt 0.8199 0.0354 0.0000
vt 0.7671 0.1007 0.0000
vt 0.7671 0.9030 0.0000
vt 0.8199 0.9683 0.0000
vt 0.2119 0.9613 0.0000
vt 0.2647 0.8960 0.0000
vt 0.2647 0.0938 0.0000
vt 0.2119 0.0285 0.0000
vt 0.2572 0.1456 0.0000
vt 0.2878 0.1456 0.0000
vt 0.2878 0.8855 0.0000
vt 0.2572 0.8855 0.0000
vt 0.1692 0.9016 0.0000
vt 0.1981 0.9016 0.0000
vt 0.1981 0.2015 0.0000
vt 0.1692 0.2015 0.0000
vt 0.2651 0.8931 0.0000
vt 0.2950 0.8931 0.0000
vt 0.2950 0.1701 0.0000
vt 0.2651 0.1701 0.0000
vt 0.3138 0.3066 0.0000
vt 0.3369 0.3066 0.0000
vt 0.3369 0.8676 0.0000
vt 0.3138 0.8676 0.0000
vt 0.1772 0.1298 0.0000
vt 0.2006 0.1298 0.0000
vt 0.2006 0.6976 0.0000
vt 0.1772 0.6976 0.0000
vt 0.1005 0.7952 0.0000
vt 0.1299 0.7952 0.0000
vt 0.1299 0.0817 0.0000
vt 0.1005 0.0817 0.0000
vt 0.0247 0.8831 0.0000
vt 0.0546 0.8831 0.0000
vt 0.0546 0.1601 0.0000
vt 0.0247 0.1601 0.0000
vt 0.1456 0.2751 0.0000
vt 0.1688 0.2751 0.0000
vt 0.1688 0.8361 0.0000
vt 0.1456 0.8361 0.0000
vt 0.9990 0.0011 0.0000
vt 0.3060 0.0011 0.0000
vt 0.3060 0.8592 0.0000
vt 0.9990 0.8592 0.0000
vt 0.7225 0.1158 0.0000
vt 0.7225 0.9994 0.0000
vt 0.0088 0.9994 0.0000
vt 0.0088 0.1158 0.0000
vt 0.6858 0.8663 0.0000
vt 0.6548 0.8663 0.0000
vt 0.6548 0.1163 0.0000
vt 0.6858 0.1163 0.0000
vt 0.8267 0.2015 0.0000
vt 0.7978 0.2015 0.0000
vt 0.7978 0.9016 0.0000
vt 0.8267 0.9016 0.0000
vt 0.9441 0.1701 0.0000
vt 0.9143 0.1701 0.0000
vt 0.9143 0.8931 0.0000
vt 0.9441 0.8931 0.0000
vt 0.8406 0.8676 0.0000
vt 0.8175 0.8676 0.0000
vt 0.8175 0.3066 0.0000
vt 0.8406 0.3066 0.0000
vt 0.0070 0.8866 0.0000
vt 0.0070 0.0014 0.0000
vt 0.7219 0.0014 0.0000
vt 0.7219 0.8866 0.0000
vt 1.0000 0.0000 0.0000
vt 1.0000 1.0000 0.0000
vt 0.0000 1.0000 0.0000
vt 0.0000 0.0000 0.0000
vt 0.3387 0.7907 0.0000
vt 0.3153 0.7907 0.0000
vt 0.3153 0.2229 0.0000
vt 0.3387 0.2229 0.0000
vt 0.4271 0.1603 0.0000
vt 0.3977 0.1603 0.0000
vt 0.3977 0.8738 0.0000
vt 0.4271 0.8738 0.0000
vt 1.0004 0.8605 0.0000
vt 0.3064 0.8605 0.0000
vt 0.3064 0.0012 0.0000
vt 1.0004 0.0012 0.0000
vt 0.7104 0.6976 0.0000
vt 0.6870 0.6976 0.0000
vt 0.6870 0.1298 0.0000
vt 0.7104 0.1298 0.0000
vt 0.7706 0.0817 0.0000
vt 0.7411 0.0817 0.0000
vt 0.7411 0.7952 0.0000
vt 0.7706 0.7952 0.0000
vt 0.7037 0.1601 0.0000
vt 0.6739 0.1601 0.0000
vt 0.6739 0.8831 0.0000
vt 0.7037 0.8831 0.0000
vt 0.6725 0.8361 0.0000
vt 0.6493 0.8361 0.0000
vt 0.6493 0.2751 0.0000
vt 0.6725 0.2751 0.0000
vt 0.0079 0.9986 0.0000
vt 0.7215 0.9986 0.0000
vt 0.7215 0.1151 0.0000
vt 0.0079 0.1151 0.0000
vt 0.1570 0.8762 0.0000
vt 0.8608 0.8762 0.0000
vt 0.8608 0.0047 0.0000
vt 0.1570 0.0047 0.0000
# 196 texture coords

g default
usemtl _untitledMaterial_001_WoodPlanksDirty0008_L
s off
f 1/1/1 2/2/1 3/3/1 4/4/1 
f 5/5/1 6/6/1 7/7/1 8/8/1 
f 4/9/1 3/10/1 6/11/1 5/12/1 
f 8/13/1 7/14/1 2/15/1 1/16/1 
f 9/17/2 10/18/2 11/19/2 12/20/2 
f 8/21/3 13/22/3 14/23/3 5/24/3 
f 5/25/3 14/26/3 10/27/3 9/28/3 
f 12/29/2 11/30/2 13/31/2 8/32/2 
f 15/33/4 16/34/4 17/35/4 18/36/4 
f 12/37/4 19/38/4 20/39/4 9/40/4 
f 9/41/4 20/42/4 16/43/4 15/44/4 
f 18/45/4 17/46/4 19/47/4 12/48/4 
f 18/49/5 21/50/5 22/51/5 15/52/5 
f 4/53/5 23/54/5 24/55/5 1/56/5 
f 15/57/5 22/58/5 23/59/5 4/60/5 
f 1/61/5 24/62/5 21/63/5 18/64/5 
f 15/65/6 25/66/6 26/67/6 9/68/6 
f 4/69/6 27/70/6 25/71/6 15/72/6 
f 5/73/6 28/74/6 27/75/6 4/76/6 
f 9/77/6 26/78/6 28/79/6 5/80/6 
f 18/81/7 29/82/7 30/83/7 1/84/7 
f 12/85/7 31/86/7 29/87/7 18/88/7 
f 8/89/7 32/90/7 31/91/7 12/92/7 
f 1/93/7 30/94/7 32/95/7 8/96/7 
f 21/97/1 33/98/1 34/99/1 22/100/1 
f 23/101/4 35/102/4 36/103/4 24/104/4 
f 22/105/7 34/106/7 35/107/7 23/108/7 
f 24/109/6 36/110/6 33/111/6 21/112/6 
f 2/113/2 37/114/2 38/115/2 3/116/2 
f 6/117/5 39/118/5 40/119/5 7/120/5 
f 3/121/7 38/122/7 39/123/7 6/124/7 
f 7/125/6 40/126/6 37/127/6 2/128/6 
f 33/129/5 36/130/5 35/131/5 34/132/5 
f 40/133/1 39/134/1 38/135/1 37/136/1 
f 10/137/1 41/138/1 42/139/1 11/140/1 
f 13/141/4 43/142/4 44/143/4 14/144/4 
f 14/145/7 44/146/7 41/147/7 10/148/7 
f 11/149/6 42/150/6 43/151/6 13/152/6 
f 44/153/2 43/154/2 42/155/2 41/156/2 
f 25/157/1 45/158/1 46/159/1 26/160/1 
f 27/161/2 47/162/2 45/163/2 25/164/2 
f 28/157/4 48/158/4 47/159/4 27/160/4 
f 26/165/5 46/166/5 48/167/5 28/168/5 
f 46/169/6 45/170/6 47/171/6 
f 48/172/6 46/169/6 47/171/6 
f 16/173/2 49/174/2 50/175/2 17/176/2 
f 19/177/5 51/178/5 52/179/5 20/180/5 
f 20/181/7 52/182/7 49/183/7 16/184/7 
f 17/185/6 50/186/6 51/187/6 19/188/6 
f 49/189/4 52/190/4 51/191/4 50/192/4 
f 29/157/2 53/158/2 54/159/2 30/160/2 
f 31/157/1 55/158/1 53/159/1 29/160/1 
f 32/157/5 56/158/5 55/159/5 31/160/5 
f 30/157/4 54/158/4 56/159/4 32/160/4 
f 53/193/7 55/194/7 56/195/7 54/196/7 
# 53 polygons - 2 triangles

