# Blender v2.74 (sub 0) OBJ File: 'crtshsp.blend'
# www.blender.org
mtllib crtshsp1.mtl
o Cube.046_Cube.072
v 1.921469 -1.168952 1.102496
v 1.921469 -1.168952 4.945434
v -1.921469 -1.168952 4.945434
v -1.921468 -1.168952 1.102495
v 1.921470 1.168952 1.102497
v 1.921468 1.168952 4.945436
v -1.921470 1.168952 4.945434
v -1.921469 1.168952 1.102496
v 1.921470 0.092365 1.102496
v 1.921468 0.092365 4.945435
v -1.921470 0.092365 4.945434
v -1.921469 0.092365 1.102495
v 1.921469 -1.168952 4.796167
v 1.921468 1.168952 4.796169
v -1.921469 -1.168952 4.796166
v -1.921470 1.168952 4.796166
v -1.921470 0.092365 4.796166
v 1.921469 0.092365 4.796168
v -1.921469 -1.168952 1.251762
v -1.921469 1.168952 1.251763
v 1.921469 -1.168952 1.251763
v 1.921470 1.168952 1.251764
v 1.921469 0.092365 1.251763
v -1.921469 0.092365 1.251762
v 1.921469 -0.770395 1.102496
v 1.921469 -0.770395 4.945435
v -1.921470 -0.770395 4.945434
v -1.921469 -0.770395 1.102495
v 1.921469 -0.770395 4.796167
v -1.921469 -0.770395 4.796166
v -1.921469 -0.770395 1.251762
v 1.921469 -0.770395 1.251763
v 1.921469 -1.168952 3.459755
v 1.921469 -1.168952 3.491166
v -1.921469 -1.168952 3.491165
v -1.921469 -1.168952 3.459754
v 1.921469 1.168952 3.459756
v 1.921469 1.168952 3.491166
v -1.921470 1.168952 3.491165
v -1.921470 1.168952 3.459754
v -1.921469 0.092365 3.491165
v -1.921469 0.092365 3.459754
v 1.921469 0.092365 3.459755
v 1.921469 0.092365 3.491166
v -1.921469 -0.770395 3.459754
v -1.921469 -0.770395 3.491165
v 1.921469 -0.770395 3.491166
v 1.921469 -0.770395 3.459755
v 1.921469 -1.168952 2.556764
v 1.921469 -1.168952 2.588175
v -1.921469 -1.168952 2.588174
v -1.921469 -1.168952 2.556764
v 1.921469 1.168952 2.556765
v 1.921469 1.168952 2.588176
v -1.921469 1.168952 2.588175
v -1.921469 1.168952 2.556764
v -1.921469 0.092365 2.588175
v -1.921469 0.092365 2.556764
v 1.921469 0.092365 2.556765
v 1.921469 0.092365 2.588175
v -1.921469 -0.770395 2.556764
v -1.921469 -0.770395 2.588175
v 1.921469 -0.770395 2.588175
v 1.921469 -0.770395 2.556764
v 1.985830 -1.168952 4.796167
v 1.985830 -1.168952 4.945434
v 1.985831 0.092365 1.102496
v 1.985831 1.168952 1.102497
v 1.985830 0.092365 4.945435
v 1.985829 1.168952 4.945436
v 1.985829 1.168952 4.796169
v 1.985831 -0.770395 1.102496
v 1.985830 -0.770395 4.945435
v 1.985830 0.092365 4.796168
v 1.985830 -0.770395 4.796167
v 1.985830 -1.168952 1.102496
v 1.985830 -1.168952 1.251763
v 1.985831 1.168952 1.251764
v 1.985831 0.092365 1.251763
v 1.985830 -0.770395 1.251763
v 1.985830 -0.770395 3.459755
v 1.985830 -0.770395 3.491166
v 1.985830 -1.168952 3.491166
v 1.985830 -1.168952 3.459755
v 1.985830 1.168952 3.491166
v 1.985830 1.168952 3.459756
v 1.985830 0.092365 3.491166
v 1.985830 0.092365 3.459755
v 1.985830 -0.770395 2.556765
v 1.985830 -0.770395 2.588175
v 1.985830 -1.168952 2.588175
v 1.985830 -1.168952 2.556764
v 1.985831 1.168952 2.588176
v 1.985831 1.168952 2.556765
v 1.985830 0.092365 2.588175
v 1.985830 0.092365 2.556765
vt 0.346281 0.783811
vt 0.333333 0.783811
vt 0.333333 0.395160
vt 0.346281 0.395160
vt 0.012947 0.006509
vt 0.012947 0.395160
vt 0.000000 0.395160
vt 0.000000 0.006509
vt 0.163439 0.790320
vt 0.163439 0.922300
vt 0.157856 0.922300
vt 0.157856 0.790320
vt 0.153497 0.783811
vt 0.000000 0.783811
vt 0.153497 0.395160
vt 0.820164 0.410256
vt 0.666667 0.410256
vt 0.666667 0.395160
vt 0.820164 0.395160
vt 0.609841 0.006509
vt 0.666667 0.006509
vt 0.609841 0.395160
vt 0.820164 0.768715
vt 0.666667 0.768715
vt 0.666667 0.636735
vt 0.820164 0.636735
vt 0.124360 0.933744
vt 0.124360 1.000000
vt 0.118777 1.000000
vt 0.118777 0.933744
vt 0.169021 0.790320
vt 0.169021 0.922300
vt 0.204467 0.006509
vt 0.204467 0.395160
vt 0.128867 0.395160
vt 0.128867 0.006509
vt 0.126142 0.006509
vt 0.126142 0.395160
vt 0.537800 0.783811
vt 0.462200 0.783811
vt 0.462200 0.395160
vt 0.537800 0.395160
vt 0.459475 0.783811
vt 0.459475 0.395160
vt 0.943175 0.768715
vt 0.943175 0.636735
vt 0.333333 0.006509
vt 0.486831 0.006509
vt 0.486831 0.395160
vt 0.943174 0.410256
vt 0.943175 0.395160
vt 0.276508 0.783811
vt 0.276508 0.395160
vt 0.169021 0.878466
vt 0.174604 0.790320
vt 0.174604 0.878466
vt 0.943175 0.783811
vt 0.820164 0.783811
vt 0.666667 0.783811
vt 0.820164 0.542236
vt 0.666667 0.542236
vt 0.820164 0.633559
vt 0.666667 0.633559
vt 0.666667 0.545412
vt 0.820164 0.545412
vt 1.000000 0.768715
vt 1.000000 0.636735
vt 0.943175 0.633559
vt 0.943174 0.545412
vt 0.346281 0.790320
vt 0.333333 0.790320
vt 0.653719 0.783811
vt 0.653719 0.395160
vt 0.320386 0.395160
vt 0.320386 0.006509
vt 0.153497 0.790320
vt 0.000000 0.790320
vt 0.943174 0.542236
vt 0.000000 0.000000
vt 0.012947 0.000000
vt 1.000000 0.633559
vt 1.000000 0.545412
vt 1.000000 0.783811
vt 1.000000 0.542236
vt 1.000000 0.410256
vt 0.486831 0.000000
vt 0.609841 0.000000
vt 1.000000 0.395160
vt 0.207191 0.395160
vt 0.207191 0.006509
vt 0.459475 0.790320
vt 0.126142 0.000000
vt 0.540525 0.783811
vt 0.653719 0.790320
vt 0.540525 0.790320
vt 0.207191 0.000000
vt 0.320386 0.000000
vt 0.152273 0.922300
vt 0.152273 0.790320
vt 0.540525 0.395160
vt 0.113195 1.000000
vt 0.113195 0.933744
vt 0.276508 0.790320
vt 0.113195 0.790320
vt 0.118777 0.790320
vt 0.124360 0.790320
vt 0.129943 0.790320
vt 0.129943 0.933744
vt 0.679614 0.209680
vt 0.679614 0.388651
vt 0.666667 0.388651
vt 0.666667 0.209680
vt 0.871133 0.209680
vt 0.871133 0.388651
vt 0.795533 0.388651
vt 0.795533 0.209680
vt 0.792809 0.209680
vt 0.792809 0.388651
vt 0.679614 0.066256
vt 0.666667 0.066256
vt 1.000000 0.066256
vt 1.000000 0.209680
vt 0.987053 0.209680
vt 0.987053 0.066256
vt 1.000000 0.388651
vt 0.987053 0.388651
vt 1.000000 0.000000
vt 0.987053 0.000000
vt 0.679614 0.000000
vt 0.666667 0.000000
vt 0.873858 0.388651
vt 0.873858 0.209680
vt 0.792809 0.000000
vt 0.792809 0.066256
vt 0.795533 0.000000
vt 0.795533 0.066256
vt 0.871133 0.066256
vt 0.871133 0.000000
vt 0.873858 0.000000
vt 0.873858 0.066256
vt 0.666667 0.790320
vt 0.135525 0.933744
vt 0.135525 0.790320
vt 0.141108 0.790320
vt 0.141108 0.933744
vt 0.128867 0.000000
vt 0.204467 0.000000
vt 0.537800 0.790320
vt 0.146691 0.922300
vt 0.146691 0.790320
vt 0.333333 0.000000
vt 0.146691 0.933744
vt 0.462200 0.790320
vt 0.000000 0.933744
vt 0.855461 0.850066
vt 0.855461 0.993491
vt 0.779861 0.993491
vt 0.779861 0.850066
vt 0.779861 0.783811
vt 0.779861 0.927235
vt 0.666667 0.927235
vt 0.855461 0.783811
vn 0.000000 -1.000000 -0.000000
vn 0.000000 1.000000 0.000000
vn -0.000000 -0.000000 1.000000
vn -1.000000 -0.000000 -0.000000
vn 0.000000 0.000000 -1.000000
vn 1.000000 0.000000 0.000000
usemtl base
s off
f 13/1/1 2/2/1 3/3/1 15/4/1
f 14/5/2 16/6/2 7/7/2 6/8/2
f 47/9/2 29/10/2 75/11/2 82/12/2
f 10/13/3 6/14/3 7/7/3 11/15/3
f 24/16/4 20/17/4 8/18/4 12/19/4
f 25/20/5 1/21/5 4/18/5 28/22/5
f 17/23/4 16/24/4 39/25/4 41/26/4
f 63/27/3 50/28/3 91/29/3 90/30/3
f 32/10/2 64/9/2 89/31/2 80/32/2
f 54/33/2 55/34/2 40/35/2 37/36/2
f 38/37/2 39/38/2 16/6/2 14/5/2
f 50/39/1 33/40/1 36/41/1 51/42/1
f 34/43/1 13/1/1 15/4/1 35/44/1
f 30/45/4 17/23/4 41/26/4 46/46/4
f 5/47/5 9/48/5 12/49/5 8/3/5
f 31/50/4 24/16/4 12/19/4 28/51/4
f 26/52/3 10/13/3 11/15/3 27/53/3
f 43/54/1 60/31/1 95/55/1 88/56/1
f 27/57/4 11/58/4 17/23/4 30/45/4
f 11/58/4 7/59/4 16/24/4 17/23/4
f 58/60/4 56/61/4 20/17/4 24/16/4
f 42/62/4 40/63/4 55/64/4 57/65/4
f 15/66/4 30/45/4 46/46/4 35/67/4
f 45/68/4 42/62/4 57/65/4 62/69/4
f 2/2/1 13/1/1 65/70/1 66/71/1
f 1/59/1 21/72/1 19/73/1 4/18/1
f 5/47/2 8/3/2 20/74/2 22/75/2
f 6/14/3 10/13/3 69/76/3 70/77/3
f 61/78/4 58/60/4 24/16/4 31/50/4
f 14/5/2 6/8/2 70/79/2 71/80/2
f 36/81/4 45/68/4 62/69/4 51/82/4
f 3/83/4 27/57/4 30/45/4 15/66/4
f 52/84/4 61/78/4 31/50/4 19/85/4
f 25/20/5 9/48/5 67/86/5 72/87/5
f 2/2/3 26/52/3 27/53/3 3/3/3
f 19/85/4 31/50/4 28/51/4 4/88/4
f 22/75/2 20/74/2 56/89/2 53/90/2
f 13/1/1 34/43/1 83/91/1 65/70/1
f 38/37/2 14/5/2 71/80/2 85/92/2
f 9/48/5 25/20/5 28/22/5 12/49/5
f 45/68/4 36/81/4 35/67/4 46/46/4
f 49/93/1 21/72/1 77/94/1 92/95/1
f 39/38/2 38/37/2 37/36/2 40/35/2
f 34/43/1 35/44/1 36/41/1 33/40/1
f 40/63/4 42/62/4 41/26/4 39/25/4
f 22/75/2 53/90/2 94/96/2 78/97/2
f 42/62/4 45/68/4 46/46/4 41/26/4
f 59/98/1 23/99/1 79/12/1 96/11/1
f 21/72/1 49/93/1 52/100/1 19/73/1
f 61/78/4 52/84/4 51/82/4 62/69/4
f 33/101/5 48/102/5 81/30/5 84/29/5
f 55/34/2 54/33/2 53/90/2 56/89/2
f 50/39/1 51/42/1 52/100/1 49/93/1
f 56/61/4 58/60/4 57/65/4 55/64/4
f 26/52/3 2/2/3 66/71/3 73/103/3
f 58/60/4 61/78/4 62/69/4 57/65/4
f 48/102/5 43/104/5 88/105/5 81/30/5
f 64/27/5 59/106/5 96/107/5 89/108/5
f 74/109/6 71/110/6 70/111/6 69/112/6
f 95/113/6 93/114/6 86/115/6 88/116/6
f 87/117/6 85/118/6 71/110/6 74/109/6
f 75/119/6 74/109/6 69/112/6 73/120/6
f 72/121/6 67/122/6 79/123/6 80/124/6
f 67/122/6 68/125/6 78/126/6 79/123/6
f 76/127/6 72/121/6 80/124/6 77/128/6
f 65/129/6 75/119/6 73/120/6 66/130/6
f 79/123/6 78/126/6 94/131/6 96/132/6
f 83/133/6 82/134/6 75/119/6 65/129/6
f 82/134/6 83/133/6 84/135/6 81/136/6
f 85/118/6 87/117/6 88/116/6 86/115/6
f 87/117/6 82/134/6 81/136/6 88/116/6
f 90/137/6 91/138/6 92/139/6 89/140/6
f 93/114/6 95/113/6 96/132/6 94/131/6
f 95/113/6 90/137/6 89/140/6 96/132/6
f 77/128/6 80/124/6 89/140/6 92/139/6
f 10/13/3 26/52/3 73/103/3 69/76/3
f 21/72/1 1/59/1 76/141/1 77/94/1
f 23/142/3 32/143/3 80/144/3 79/145/3
f 54/33/2 37/36/2 86/146/2 93/147/2
f 60/106/3 63/27/3 90/30/3 95/105/3
f 53/90/2 54/33/2 93/147/2 94/96/2
f 50/39/1 49/93/1 92/95/1 91/148/1
f 18/149/1 44/150/1 87/99/1 74/98/1
f 9/48/5 5/47/5 68/151/5 67/86/5
f 29/145/5 18/144/5 74/150/5 75/152/5
f 37/36/2 38/37/2 85/92/2 86/146/2
f 1/21/5 25/20/5 72/87/5 76/130/5
f 34/43/1 33/40/1 84/153/1 83/91/1
f 44/143/3 47/142/3 82/108/3 87/107/3
f 5/47/2 22/75/2 78/97/2 68/151/2
usemtl blue
f 32/104/6 23/102/6 59/154/6 64/77/6
f 63/155/6 60/156/6 43/157/6 48/158/6
f 47/159/6 44/160/6 18/161/6 29/59/6
f 50/162/6 63/155/6 48/158/6 33/159/6
o Cube.045_Cube.071
v -1.852533 1.234760 1.170296
v -1.852533 1.315594 1.170296
v -1.921470 1.168952 4.945434
v -1.921469 1.168952 1.102496
v -1.921470 1.315594 4.945434
v 1.985831 1.315594 1.102497
v 1.916895 1.234760 1.170297
v -1.852534 1.234760 4.877633
v 1.985831 1.168952 1.102497
v 1.985829 1.168952 4.945436
v 1.985829 1.315594 4.945436
v -1.921469 1.315594 1.102496
v -1.852534 1.315594 4.877633
v 1.916893 1.315594 4.877635
v 1.916895 1.315594 1.170297
v 1.916893 1.234760 4.877635
vt 0.576443 0.991764
vt 0.576443 0.500000
vt 0.607805 0.500000
vt 0.607805 0.991764
vt 0.545081 0.991764
vt 0.545081 0.500000
vt 0.513719 1.000000
vt 0.513719 0.500000
vt 0.545081 1.000000
vt 0.000000 0.000000
vt 0.500000 0.000000
vt 0.500000 0.500000
vt 0.000000 0.500000
vt 0.508821 0.008822
vt 0.508822 0.491178
vt 1.000000 0.000000
vt 0.991179 0.008821
vt 0.625093 0.500000
vt 0.625093 0.982357
vt 0.607805 0.982357
vt 1.000000 0.500000
vt 0.991179 0.491178
vt 0.482357 0.500000
vt 0.482357 0.982357
vt 0.000000 0.982357
vt 0.482357 1.000000
vt 0.642381 0.974412
vt 0.642381 0.500000
vt 0.659669 0.500000
vt 0.659669 0.974412
vt 0.676956 0.500000
vt 0.676956 0.974412
vt 0.642381 0.982357
vn -1.000000 0.000000 -0.000000
vn 1.000000 0.000000 0.000000
vn -0.000000 0.000000 1.000000
vn 0.000000 -1.000000 -0.000000
vn 0.000000 1.000000 0.000000
vn 0.000000 0.000000 -1.000000
usemtl white
s off
f 100/163/7 99/164/7 101/165/7 108/166/7
f 106/164/8 105/163/8 102/167/8 107/168/8
f 99/169/9 106/170/9 107/168/9 101/171/9
f 105/172/10 106/173/10 99/174/10 100/175/10
f 101/174/11 107/173/11 110/176/11 109/177/11
f 107/173/11 102/178/11 111/179/11 110/176/11
f 111/180/9 98/181/9 97/182/9 103/165/9
f 102/178/11 108/183/11 98/184/11 111/179/11
f 103/185/11 97/186/11 104/187/11 112/175/11
f 105/188/12 100/185/12 108/170/12 102/169/12
f 110/189/7 111/190/7 103/191/7 112/192/7
f 98/192/8 109/191/8 104/193/8 97/194/8
f 109/181/12 110/180/12 112/190/12 104/195/12
f 108/183/11 101/174/11 109/177/11 98/184/11
o Cube.044_Cube.070
v 1.985831 0.092365 1.102496
v 1.985831 1.168952 1.102497
v 1.985830 0.092365 4.945435
v 1.985829 1.168952 4.945436
v 2.037686 1.168952 4.945436
v 2.037688 1.168952 1.102497
v 2.037688 0.092365 1.102496
v 2.037686 0.092365 4.945435
vt 0.478948 0.000000
vt 0.957895 0.000000
vt 0.957895 1.000000
vt 0.478948 1.000000
vt 0.971930 1.000000
vt 0.971930 0.000000
vt 0.985965 0.000000
vt 0.985965 1.000000
vt 1.000000 0.460492
vt 1.000000 0.920985
vt 0.985965 0.920985
vt 0.985965 0.460492
vt 0.000000 1.000000
vt 0.000000 0.000000
vt 1.000000 0.000000
vn -1.000000 0.000000 -0.000000
vn 0.000000 -1.000000 0.000000
vn 0.000000 0.000000 -1.000000
vn 1.000000 0.000000 0.000000
vn 0.000000 1.000000 -0.000000
vn 0.000000 -0.000000 1.000000
usemtl sign
s off
f 115/196/13 116/197/13 114/198/13 113/199/13
f 115/200/14 113/201/14 119/202/14 120/203/14
f 113/204/15 114/205/15 118/206/15 119/207/15
f 120/196/16 119/199/16 118/208/16 117/209/16
f 114/198/17 116/197/17 117/201/17 118/200/17
f 116/210/18 115/204/18 120/207/18 117/202/18
o Cube.041_Cube.067
v 1.921469 0.051354 4.755157
v 1.921469 0.051354 1.292774
v 1.921469 -0.729384 4.755157
v 1.921469 -0.729384 1.292774
v 1.921469 -1.168952 3.401755
v 1.921469 0.051354 3.418745
v 1.921469 0.051354 3.532177
v 1.921469 -0.729384 3.532176
v 1.921469 -0.770395 3.401755
v 1.921469 -1.168952 2.646175
v 1.921469 0.051354 2.515754
v 1.921469 0.051354 2.629186
v 1.921469 -0.770395 2.646173
v 1.921469 -0.729384 2.515754
v 2.006547 0.051354 4.755157
v 2.006547 -0.729384 4.755157
v 2.006547 0.051354 1.292774
v 2.006547 -0.729384 1.292774
v 2.006547 -0.770395 3.401755
v 2.006547 -0.729384 3.532177
v 2.006547 -1.168952 3.401755
v 2.006547 0.051354 3.532177
v 2.006547 0.051354 3.418745
v 2.006547 -0.729384 2.515754
v 2.006547 -0.770395 2.646175
v 2.006547 -1.168952 2.646175
v 2.006547 0.051354 2.629186
v 2.006547 0.051354 2.515754
v 1.921469 0.092365 4.796168
v 1.921469 0.092365 1.251763
v 1.921469 -0.770395 4.796167
v 1.921469 -0.770395 1.251763
v 1.921469 -1.168952 3.459755
v 1.921469 0.092365 3.459755
v 1.921469 0.092365 3.491166
v 1.921469 -0.770395 3.491166
v 1.921469 -0.770395 3.459755
v 1.921469 -1.168952 2.588175
v 1.921469 0.092365 2.556765
v 1.921469 0.092365 2.588175
v 1.921469 -0.770395 2.588175
v 1.921469 -0.770395 2.556764
v 2.006547 0.092365 4.796168
v 2.006547 -0.770395 4.796167
v 2.006547 0.092365 1.251763
v 2.006547 -0.770395 1.251763
v 2.006547 -0.770395 3.459755
v 2.006547 -0.770395 3.491166
v 2.006547 -1.168952 3.459755
v 2.006547 0.092365 3.491166
v 2.006547 0.092365 3.459755
v 2.006547 -0.770395 2.556765
v 2.006547 -0.770395 2.588175
v 2.006547 -1.168952 2.588175
v 2.006547 0.092365 2.588175
v 2.006547 0.092365 2.556765
vt 0.090909 0.000000
vt 0.090909 1.000000
vt 0.000000 1.000000
vt 0.000001 0.000000
vt 0.545455 0.661118
vt 0.545455 0.966525
vt 0.454546 0.966525
vt 0.454546 0.661118
vt 0.181819 1.000000
vt 0.181819 0.000000
vt 0.272727 0.000000
vt 0.272728 1.000000
vt 0.545455 0.667876
vt 0.545455 0.000000
vt 0.636364 0.000000
vt 0.636364 0.667876
vt 0.363637 0.000000
vt 0.363637 1.000000
vt 0.363637 0.966525
vt 0.363637 0.661118
vt 0.454546 0.000000
vt 0.818183 0.661118
vt 0.818182 0.000000
vt 0.909091 0.000000
vt 0.909091 0.661118
vt 0.727273 0.000000
vt 0.727273 0.661118
vt 0.636364 0.661118
vt 1.000000 0.000000
vt 1.000000 0.661118
vn 0.000000 1.000000 0.000000
vn -0.000000 0.000000 1.000000
vn 0.000000 -1.000000 0.000000
vn 0.000000 0.000000 -1.000000
vn 0.000000 0.020700 -0.999800
vn -0.000000 0.020700 0.999800
vn -1.000000 -0.000000 0.000000
vn 1.000000 0.000000 0.000000
usemtl frame
s off
f 128/211/19 123/212/19 136/213/19 140/214/19
f 133/215/20 130/216/20 146/217/20 145/218/20
f 124/219/19 134/220/19 144/221/19 138/222/19
f 126/223/21 132/224/21 147/225/21 143/226/21
f 131/227/21 122/228/21 137/222/21 148/221/21
f 125/229/22 129/230/22 139/218/22 141/217/22
f 129/230/23 126/227/23 143/231/23 139/218/23
f 134/232/22 131/233/22 148/234/22 144/235/22
f 122/236/20 124/237/20 138/238/20 137/225/20
f 132/224/24 133/215/24 145/218/24 147/231/24
f 121/212/21 127/211/21 142/220/21 135/219/21
f 123/235/22 121/234/22 135/239/22 136/240/22
f 127/233/20 128/232/20 140/237/20 142/236/20
f 168/214/21 164/213/21 151/212/21 156/211/21
f 173/218/22 174/217/22 158/216/22 161/215/22
f 166/222/21 172/221/21 162/220/21 152/219/21
f 171/226/19 175/225/19 160/224/19 154/223/19
f 176/221/19 165/222/19 150/228/19 159/227/19
f 169/217/20 167/218/20 157/230/20 153/229/20
f 167/218/20 171/231/20 154/227/20 157/230/20
f 172/235/20 176/234/20 159/233/20 162/232/20
f 165/225/22 166/238/22 152/237/22 150/236/22
f 175/231/22 173/218/22 161/215/22 160/224/22
f 163/219/19 170/220/19 155/211/19 149/212/19
f 164/240/20 163/239/20 149/234/20 151/235/20
f 170/236/22 168/237/22 156/232/22 155/233/22
f 121/234/25 123/235/25 151/235/25 149/234/25
f 124/237/25 122/236/25 150/236/25 152/237/25
f 129/230/25 125/229/25 153/229/25 157/230/25
f 125/229/21 141/217/21 169/217/21 153/229/21
f 128/232/25 127/233/25 155/233/25 156/232/25
f 126/227/25 129/230/25 157/230/25 154/227/25
f 123/212/25 128/211/25 156/211/25 151/212/25
f 127/211/25 121/212/25 149/212/25 155/211/25
f 130/216/25 133/215/25 161/215/25 158/216/25
f 133/215/25 132/224/25 160/224/25 161/215/25
f 131/233/25 134/232/25 162/232/25 159/233/25
f 134/220/25 124/219/25 152/219/25 162/220/25
f 122/228/25 131/227/25 159/227/25 150/228/25
f 132/224/25 126/223/25 154/223/25 160/224/25
f 136/240/26 135/239/26 163/239/26 164/240/26
f 137/225/26 138/238/26 166/238/26 165/225/26
f 141/217/26 139/218/26 167/218/26 169/217/26
f 142/236/26 140/237/26 168/237/26 170/236/26
f 139/218/26 143/231/26 171/231/26 167/218/26
f 140/214/26 136/213/26 164/213/26 168/214/26
f 135/219/26 142/220/26 170/220/26 163/219/26
f 145/218/26 146/217/26 174/217/26 173/218/26
f 147/231/26 145/218/26 173/218/26 175/231/26
f 144/235/26 148/234/26 176/234/26 172/235/26
f 138/222/26 144/221/26 172/221/26 166/222/26
f 148/221/26 137/222/26 165/222/26 176/221/26
f 143/226/26 147/225/26 175/225/26 171/226/26
f 146/217/21 130/216/21 158/216/21 174/217/21
