# 3ds Max Wavefront OBJ Exporter v0.97b - (c)2007 guruware
# File Created: 13.04.2017 12:43:00

mtllib certificate.mtl

#
# object Shelf_LEIL
#

#
# object Extru1
#

#
# object Recta28
#

#
# object Extru
#

#
# object Recta
#

#
# object Extru5
#

#
# object Recta9
#

#
# object Plane02
#

v  -0.0197 -0.9663 1.5181
v  -0.0197 -0.9663 0.7589
v  -0.0197 -0.4831 0.7589
v  -0.0197 -0.4831 1.5181
v  -0.0197 -0.9663 -0.0002
v  -0.0197 -0.4831 -0.0002
v  -0.0197 -0.9663 -0.7592
v  -0.0197 -0.4831 -0.7592
v  -0.0197 -0.9663 -1.5183
v  -0.0197 -0.4831 -1.5183
v  -0.0197 0.0000 0.7589
v  -0.0197 0.0000 1.5181
v  -0.0197 -0.0000 -0.0002
v  -0.0197 -0.0000 -0.7592
v  -0.0197 -0.0000 -1.5183
v  -0.0197 0.4831 0.7590
v  -0.0197 0.4831 1.5181
v  -0.0197 0.4831 -0.0002
v  -0.0197 0.4831 -0.7592
v  -0.0197 0.4831 -1.5183
v  -0.0197 0.9663 0.7591
v  -0.0197 0.9663 1.5181
v  -0.0197 0.9663 -0.0002
v  -0.0197 0.9663 -0.7592
v  -0.0197 0.9663 -1.5183
v  0.0197 -0.9663 1.5181
v  0.0197 -0.4831 1.5181
v  0.0197 -0.4967 1.5606
v  0.0197 -0.9933 1.5606
v  0.0197 -0.9663 0.7591
v  0.0197 -0.9933 0.7803
v  0.0197 -0.9663 0.0000
v  0.0197 -0.9933 0.0000
v  0.0197 -0.9663 -0.7591
v  0.0197 -0.9933 -0.7803
v  0.0197 -0.4831 -1.5181
v  0.0197 -0.9663 -1.5181
v  0.0197 -0.9933 -1.5606
v  0.0197 -0.4967 -1.5606
v  0.0197 0.0000 1.5181
v  0.0197 0.0000 1.5606
v  0.0197 -0.0000 -1.5181
v  0.0197 -0.0000 -1.5606
v  0.0197 0.4831 1.5181
v  0.0197 0.4967 1.5606
v  0.0197 0.4831 -1.5181
v  0.0197 0.4967 -1.5606
v  0.0197 0.9663 1.5181
v  0.0197 0.9933 1.5606
v  0.0197 0.9663 0.7591
v  0.0197 0.9933 0.7803
v  0.0197 0.9663 -0.0000
v  0.0197 0.9933 -0.0000
v  0.0197 0.9663 -0.7591
v  0.0197 0.9933 -0.7803
v  0.0197 0.9663 -1.5181
v  0.0197 0.9933 -1.5606
v  -0.0197 -0.4967 1.5606
v  -0.0197 -0.9933 1.5606
v  -0.0197 -0.9933 0.7803
v  -0.0197 -0.9933 0.0000
v  -0.0197 -0.9933 -0.7803
v  -0.0197 -0.9933 -1.5606
v  -0.0197 -0.4967 -1.5606
v  -0.0197 -0.0000 -1.5606
v  -0.0197 0.4967 -1.5606
v  -0.0197 0.9933 -1.5606
v  -0.0197 0.9933 -0.7803
v  -0.0197 0.9933 -0.0000
v  -0.0197 0.9933 0.7803
v  -0.0197 0.9933 1.5606
v  -0.0197 0.4967 1.5606
v  -0.0197 0.0000 1.5606
# 73 vertices

vn 1.0000 -0.0000 -0.0000
vn -0.0000 -0.0000 -1.0000
vn -0.0000 -1.0000 0.0000
vn -0.0047 0.0000 1.0000
vn -0.0000 1.0000 -0.0000
vn 0.0000 1.0000 -0.0000
vn -0.0000 1.0000 0.0000
vn 0.0000 0.0000 1.0000
# 8 vertex normals

vt 0.0000 0.0000 0.0000
vt 0.2500 0.0000 0.0000
vt 0.2500 0.2500 0.0000
vt 0.0000 0.2500 0.0000
vt 0.5000 0.0000 0.0000
vt 0.5000 0.2500 0.0000
vt 0.7500 0.0000 0.0000
vt 0.7500 0.2500 0.0000
vt 1.0000 0.0000 0.0000
vt 1.0000 0.2500 0.0000
vt 0.2500 0.5000 0.0000
vt 0.0000 0.5000 0.0000
vt 0.5000 0.5000 0.0000
vt 0.7500 0.5000 0.0000
vt 1.0000 0.5000 0.0000
vt 0.2500 0.7500 0.0000
vt 0.0000 0.7500 0.0000
vt 0.5000 0.7500 0.0000
vt 0.7500 0.7500 0.0000
vt 1.0000 0.7500 0.0000
vt 0.2500 1.0000 0.0000
vt 0.0000 1.0000 0.0000
vt 0.5000 1.0000 0.0000
vt 0.7500 1.0000 0.0000
vt 1.0000 1.0000 0.0000
# 25 texture coords

g Plane02
usemtl 14___Default
s 1
f 1/1/1 2/2/1 3/3/1 4/4/1 
f 2/2/1 5/5/1 6/6/1 3/3/1 
f 5/5/1 7/7/1 8/8/1 6/6/1 
f 7/7/1 9/9/1 10/10/1 8/8/1 
f 4/4/1 3/3/1 11/11/1 12/12/1 
f 3/3/1 6/6/1 13/13/1 11/11/1 
f 6/6/1 8/8/1 14/14/1 13/13/1 
f 8/8/1 10/10/1 15/15/1 14/14/1 
f 12/12/1 11/11/1 16/16/1 17/17/1 
f 11/11/1 13/13/1 18/18/1 16/16/1 
f 13/13/1 14/14/1 19/19/1 18/18/1 
f 14/14/1 15/15/1 20/20/1 19/19/1 
f 17/17/1 16/16/1 21/21/1 22/22/1 
f 16/16/1 18/18/1 23/23/1 21/21/1 
f 18/18/1 19/19/1 24/24/1 23/23/1 
f 19/19/1 20/20/1 25/25/1 24/24/1 
usemtl 15___Default
s off
f 26/1/1 27/4/1 28/4/1 29/1/1 
f 30/2/1 26/1/1 29/1/1 31/2/1 
f 32/5/1 30/2/1 31/2/1 33/5/1 
f 34/7/1 32/5/1 33/5/1 35/7/1 
f 36/10/1 37/9/1 38/9/1 39/10/1 
f 37/9/1 34/7/1 35/7/1 38/9/1 
f 27/4/1 40/12/1 41/12/1 28/4/1 
f 42/15/1 36/10/1 39/10/1 43/15/1 
f 40/12/1 44/17/1 45/17/1 41/12/1 
f 46/20/1 42/15/1 43/15/1 47/20/1 
f 44/17/1 48/22/1 49/22/1 45/17/1 
f 48/22/1 50/21/1 51/21/1 49/22/1 
f 50/21/1 52/23/1 53/23/1 51/21/1 
f 52/23/1 54/24/1 55/24/1 53/23/1 
f 54/24/1 56/25/1 57/25/1 55/24/1 
f 56/25/1 46/20/1 47/20/1 57/25/1 
f 1/1/2 4/4/2 27/4/2 26/1/2 
f 4/4/2 12/12/2 40/12/2 27/4/2 
f 12/12/2 17/17/2 44/17/2 40/12/2 
f 17/17/2 22/22/2 48/22/2 44/17/2 
f 22/22/3 21/21/3 50/21/3 48/22/3 
f 21/21/3 23/23/3 52/23/3 50/21/3 
f 23/23/3 24/24/3 54/24/3 52/23/3 
f 24/24/3 25/25/3 56/25/3 54/24/3 
f 25/25/4 20/20/4 46/20/4 56/25/4 
f 20/20/4 15/15/4 42/15/4 46/20/4 
f 15/15/4 10/10/4 36/10/4 42/15/4 
f 10/10/4 9/9/4 37/9/4 36/10/4 
f 9/9/5 7/7/5 34/7/5 37/9/5 
f 7/7/6 5/5/6 32/5/6 34/7/6 
f 5/5/7 2/2/7 30/2/7 32/5/7 
f 2/2/5 1/1/5 26/1/5 30/2/5 
f 58/4/8 59/1/8 29/1/8 28/4/8 
f 59/1/3 60/2/3 31/2/3 29/1/3 
f 60/2/3 61/5/3 33/5/3 31/2/3 
f 61/5/3 62/7/3 35/7/3 33/5/3 
f 62/7/3 63/9/3 38/9/3 35/7/3 
f 63/9/2 64/10/2 39/10/2 38/9/2 
f 64/10/2 65/15/2 43/15/2 39/10/2 
f 65/15/2 66/20/2 47/20/2 43/15/2 
f 66/20/2 67/25/2 57/25/2 47/20/2 
f 67/25/6 68/24/6 55/24/6 57/25/6 
f 68/24/6 69/23/6 53/23/6 55/24/6 
f 69/23/6 70/21/6 51/21/6 53/23/6 
f 70/21/6 71/22/6 49/22/6 51/21/6 
f 71/22/8 72/17/8 45/17/8 49/22/8 
f 72/17/8 73/12/8 41/12/8 45/17/8 
f 73/12/8 58/4/8 28/4/8 41/12/8 
# 64 polygons

